<svg width="60" height="60" viewBox="0 0 60 60" fill="none" xmlns="http://www.w3.org/2000/svg">
<g clip-path="url(#clip0_201_18)">
<path d="M30.277 -0.09375C17.7095 -0.09375 14.034 -0.0807853 13.3196 -0.0215179C10.7405 0.192863 9.13567 0.598937 7.38728 1.46943C6.03988 2.1385 4.97723 2.91407 3.92848 4.00125C2.01849 5.98393 0.860929 8.42315 0.44189 11.3226C0.238159 12.7302 0.178891 13.0173 0.166853 20.2072C0.162223 22.6038 0.166853 25.7579 0.166853 29.9886C0.166853 42.5459 0.180744 46.2177 0.240937 46.9307C0.449299 49.4403 0.842871 51.0192 1.67632 52.7463C3.26913 56.0523 6.31121 58.5342 9.89503 59.4602C11.1359 59.7797 12.5065 59.9556 14.266 60.039C15.0115 60.0714 22.6097 60.0946 30.2126 60.0946C37.8155 60.0946 45.4184 60.0853 46.1453 60.0483C48.1827 59.9524 49.3657 59.7936 50.6737 59.4556C52.4507 58.9999 54.1068 58.1617 55.5264 56.9997C56.9459 55.8377 58.0947 54.3798 58.8924 52.7278C59.7097 51.0424 60.1241 49.4033 60.3116 47.0247C60.3524 46.5061 60.3695 38.2379 60.3695 29.9807C60.3695 21.7222 60.351 13.4692 60.3102 12.9506C60.1204 10.5336 59.706 8.9084 58.8624 7.19058C58.1701 5.78437 57.4015 4.73422 56.2856 3.66047C54.2946 1.75835 51.8591 0.600789 48.9564 0.182214C47.5502 -0.0210549 47.27 -0.0812483 40.0746 -0.09375H30.277Z" fill="url(#paint0_radial_201_18)"/>
<path d="M30.277 -0.09375C17.7095 -0.09375 14.034 -0.0807853 13.3196 -0.0215179C10.7405 0.192863 9.13567 0.598937 7.38728 1.46943C6.03988 2.1385 4.97723 2.91407 3.92848 4.00125C2.01849 5.98393 0.860929 8.42315 0.44189 11.3226C0.238159 12.7302 0.178891 13.0173 0.166853 20.2072C0.162223 22.6038 0.166853 25.7579 0.166853 29.9886C0.166853 42.5459 0.180744 46.2177 0.240937 46.9307C0.449299 49.4403 0.842871 51.0192 1.67632 52.7463C3.26913 56.0523 6.31121 58.5342 9.89503 59.4602C11.1359 59.7797 12.5065 59.9556 14.266 60.039C15.0115 60.0714 22.6097 60.0946 30.2126 60.0946C37.8155 60.0946 45.4184 60.0853 46.1453 60.0483C48.1827 59.9524 49.3657 59.7936 50.6737 59.4556C52.4507 58.9999 54.1068 58.1617 55.5264 56.9997C56.9459 55.8377 58.0947 54.3798 58.8924 52.7278C59.7097 51.0424 60.1241 49.4033 60.3116 47.0247C60.3524 46.5061 60.3695 38.2379 60.3695 29.9807C60.3695 21.7222 60.351 13.4692 60.3102 12.9506C60.1204 10.5336 59.706 8.9084 58.8624 7.19058C58.1701 5.78437 57.4015 4.73422 56.2856 3.66047C54.2946 1.75835 51.8591 0.600789 48.9564 0.182214C47.5502 -0.0210549 47.27 -0.0812483 40.0746 -0.09375H30.277Z" fill="url(#paint1_radial_201_18)"/>
<path d="M30.263 7.77783C24.227 7.77783 23.4695 7.80422 21.0988 7.91211C18.7327 8.02046 17.1177 8.39505 15.7046 8.94466C14.2428 9.51233 13.0028 10.2717 11.7674 11.5075C10.5312 12.7429 9.7718 13.9828 9.20228 15.4442C8.65128 16.8578 8.27622 18.4733 8.16973 20.8384C8.06416 23.2091 8.03638 23.9671 8.03638 30.0031C8.03638 36.0391 8.06323 36.7943 8.17065 39.165C8.27947 41.531 8.65405 43.1461 9.2032 44.5592C9.77134 46.021 10.5307 47.261 11.7665 48.4964C13.0014 49.7326 14.2414 50.4938 15.7022 51.0615C17.1163 51.6111 18.7318 51.9857 21.0974 52.0941C23.4681 52.202 24.2252 52.2283 30.2607 52.2283C36.2972 52.2283 37.0524 52.202 39.4231 52.0941C41.7891 51.9857 43.406 51.6111 44.8201 51.0615C46.2814 50.4938 47.5195 49.7326 48.7544 48.4964C49.9907 47.261 50.7501 46.021 51.3196 44.5597C51.866 43.1461 52.241 41.5306 52.3521 39.1654C52.4586 36.7948 52.4864 36.0391 52.4864 30.0031C52.4864 23.9671 52.4586 23.2096 52.3521 20.8389C52.241 18.4728 51.866 16.8578 51.3196 15.4446C50.7501 13.9828 49.9907 12.7429 48.7544 11.5075C47.5182 10.2712 46.2819 9.51187 44.8187 8.94466C43.4019 8.39505 41.7859 8.02046 39.4198 7.91211C37.0491 7.80422 36.2944 7.77783 30.2565 7.77783H30.263ZM28.2692 11.783C28.861 11.7821 29.5213 11.783 30.263 11.783C36.1972 11.783 36.9005 11.8043 39.2439 11.9108C41.4108 12.0099 42.5869 12.372 43.3704 12.6762C44.4075 13.079 45.147 13.5606 45.9244 14.3384C46.7023 15.1163 47.1838 15.8572 47.5876 16.8944C47.8918 17.6769 48.2544 18.853 48.353 21.0199C48.4595 23.3628 48.4826 24.0666 48.4826 29.998C48.4826 35.9294 48.4595 36.6332 48.353 38.9761C48.2539 41.143 47.8918 42.3191 47.5876 43.1016C47.1848 44.1388 46.7023 44.8773 45.9244 45.6548C45.1465 46.4326 44.408 46.9142 43.3704 47.317C42.5878 47.6226 41.4108 47.9838 39.2439 48.0829C36.901 48.1894 36.1972 48.2125 30.263 48.2125C24.3284 48.2125 23.6251 48.1894 21.2822 48.0829C19.1152 47.9829 17.9391 47.6208 17.1552 47.3166C16.118 46.9137 15.3772 46.4322 14.5993 45.6543C13.8214 44.8764 13.3399 44.1374 12.9361 43.0998C12.6319 42.3173 12.2694 41.1412 12.1707 38.9742C12.0642 36.6313 12.0429 35.9275 12.0429 29.9924C12.0429 24.0574 12.0642 23.3573 12.1707 21.0144C12.2698 18.8474 12.6319 17.6713 12.9361 16.8879C13.339 15.8507 13.8214 15.1099 14.5993 14.332C15.3772 13.5541 16.118 13.0725 17.1552 12.6688C17.9387 12.3632 19.1152 12.002 21.2822 11.9025C23.3324 11.8099 24.127 11.7821 28.2692 11.7775V11.783ZM42.1267 15.4733C41.5991 15.4733 41.0835 15.6298 40.6449 15.9229C40.2062 16.216 39.8644 16.6326 39.6626 17.1199C39.4607 17.6073 39.408 18.1436 39.511 18.661C39.6139 19.1784 39.868 19.6536 40.2411 20.0266C40.6142 20.3995 41.0895 20.6535 41.6069 20.7563C42.1243 20.8591 42.6606 20.8061 43.1479 20.6041C43.6353 20.4021 44.0517 20.0601 44.3447 19.6214C44.6376 19.1827 44.7939 18.667 44.7937 18.1394C44.7937 16.667 43.5991 15.4724 42.1267 15.4724V15.4733ZM30.263 18.5895C23.9598 18.5895 18.8494 23.6999 18.8494 30.0031C18.8494 36.3063 23.9598 41.4144 30.263 41.4144C36.5662 41.4144 41.6752 36.3063 41.6752 30.0031C41.6752 23.6999 36.5657 18.5895 30.2626 18.5895H30.263ZM30.263 22.5947C34.3543 22.5947 37.6714 25.9113 37.6714 30.0031C37.6714 34.0944 34.3543 37.4115 30.263 37.4115C26.1713 37.4115 22.8546 34.0944 22.8546 30.0031C22.8546 25.9113 26.1713 22.5947 30.263 22.5947Z" fill="white"/>
</g>
<defs>
<radialGradient id="paint0_radial_201_18" cx="0" cy="0" r="1" gradientUnits="userSpaceOnUse" gradientTransform="translate(16.1567 64.7303) rotate(-90) scale(59.6511 55.4953)">
<stop stop-color="#FFDD55"/>
<stop offset="0.1" stop-color="#FFDD55"/>
<stop offset="0.5" stop-color="#FF543E"/>
<stop offset="1" stop-color="#C837AB"/>
</radialGradient>
<radialGradient id="paint1_radial_201_18" cx="0" cy="0" r="1" gradientUnits="userSpaceOnUse" gradientTransform="translate(-9.91981 4.24211) rotate(78.6776) scale(26.6645 109.94)">
<stop stop-color="#3771C8"/>
<stop offset="0.128" stop-color="#3771C8"/>
<stop offset="1" stop-color="#6600FF" stop-opacity="0"/>
</radialGradient>
<clipPath id="clip0_201_18">
<rect width="60" height="60" fill="white"/>
</clipPath>
</defs>
</svg>
